<svg id="Layer_1" data-name="Layer 1" xmlns="http://www.w3.org/2000/svg" viewBox="0 0 53.99 197.4"><title>bow_2x4</title><path d="M29.43,183.14c7.37-4.92,46.07-19.69,46.07-83.39S36.8,21.28,29.43,16.36,29.12,6.79,31,5.42,31,0,27.89,1.32c-2.85,1.27-12,10.51-1.37,18.6l-0.16-.12V179.69l0.18-.13c-10.66,8.1-1.49,17.35,1.35,18.62,3.07,1.37,4.91-2.73,3.07-4.1S22.06,188.06,29.43,183.14ZM27.69,20.76c0.54,0.36,1.11.72,1.73,1.07C72.74,42.88,69.48,99.75,69.48,99.75s3.25,56.87-40.06,77.92c-0.62.35-1.18,0.7-1.72,1.06l0.18-.13V20.9Z" transform="translate(-21.51 -1.05)" fill="#fff" fill-rule="evenodd"/></svg>